<svg xmlns="http://www.w3.org/2000/svg" width="900" height="700" viewBox="0 0 900 700">
  <g fill="#b0a494">
    <circle cx="540" cy="50" r="2.5" opacity="0.5"/>
    <circle cx="650" cy="30" r="2.0" opacity="0.45"/>
    <circle cx="490" cy="90" r="2.2" opacity="0.48"/>
    <circle cx="590" cy="70" r="2.8" opacity="0.52"/>
    <circle cx="740" cy="55" r="1.8" opacity="0.4"/>
    <circle cx="680" cy="100" r="2.3" opacity="0.46"/>
    <circle cx="520" cy="120" r="2.0" opacity="0.42"/>
    <circle cx="800" cy="40" r="2.5" opacity="0.38"/>
    <circle cx="610" cy="25" r="1.8" opacity="0.44"/>
    <circle cx="470" cy="45" r="1.6" opacity="0.35"/>
    <circle cx="720" cy="88" r="2.2" opacity="0.43"/>
    <circle cx="560" cy="115" r="2.5" opacity="0.5"/>
    <circle cx="830" cy="75" r="2.0" opacity="0.38"/>
    <circle cx="450" cy="65" r="1.5" opacity="0.3"/>
    <circle cx="660" cy="130" r="2.2" opacity="0.44"/>
    <circle cx="550" cy="145" r="1.8" opacity="0.4"/>
    <circle cx="620" cy="48" r="1.6" opacity="0.36"/>
    <circle cx="770" cy="115" r="2.5" opacity="0.44"/>
    <circle cx="505" cy="160" r="1.6" opacity="0.38"/>
    <circle cx="580" cy="155" r="2.0" opacity="0.42"/>
    <circle cx="700" cy="145" r="2.2" opacity="0.43"/>
    <circle cx="850" cy="60" r="1.6" opacity="0.32"/>
    <circle cx="480" cy="175" r="1.5" opacity="0.35"/>
    <circle cx="790" cy="130" r="1.8" opacity="0.38"/>
    <circle cx="535" cy="180" r="2.2" opacity="0.44"/>
    <circle cx="670" cy="165" r="1.6" opacity="0.36"/>
    <circle cx="600" cy="185" r="1.8" opacity="0.4"/>
    <circle cx="440" cy="120" r="1.5" opacity="0.28"/>
    <circle cx="760" cy="160" r="1.8" opacity="0.38"/>
    <circle cx="510" cy="195" r="1.5" opacity="0.34"/>
    <circle cx="860" cy="100" r="1.5" opacity="0.28"/>
    <circle cx="455" cy="150" r="1.4" opacity="0.25"/>
    <circle cx="690" cy="185" r="1.8" opacity="0.38"/>
    <circle cx="570" cy="205" r="1.6" opacity="0.35"/>
    <circle cx="740" cy="180" r="1.6" opacity="0.36"/>
    <circle cx="490" cy="210" r="1.4" opacity="0.3"/>
    <circle cx="820" cy="145" r="1.6" opacity="0.32"/>
    <circle cx="625" cy="220" r="1.6" opacity="0.34"/>
    <circle cx="555" cy="230" r="1.4" opacity="0.3"/>
    <circle cx="715" cy="210" r="1.6" opacity="0.35"/>
    <circle cx="500" cy="235" r="1.4" opacity="0.28"/>
    <circle cx="785" cy="195" r="1.5" opacity="0.32"/>
    <circle cx="590" cy="245" r="1.4" opacity="0.28"/>
    <circle cx="660" cy="235" r="1.5" opacity="0.32"/>
    <circle cx="755" cy="225" r="1.4" opacity="0.3"/>
    <circle cx="530" cy="255" r="1.4" opacity="0.28"/>
    <circle cx="845" cy="180" r="1.3" opacity="0.25"/>
    <circle cx="470" cy="245" r="1.2" opacity="0.22"/>
    <circle cx="700" cy="250" r="1.4" opacity="0.28"/>
    <circle cx="575" cy="265" r="1.4" opacity="0.28"/>
    <circle cx="800" cy="235" r="1.3" opacity="0.26"/>
    <circle cx="620" cy="270" r="1.3" opacity="0.25"/>
    <circle cx="730" cy="260" r="1.4" opacity="0.28"/>
    <circle cx="515" cy="275" r="1.2" opacity="0.22"/>
    <circle cx="650" cy="285" r="1.2" opacity="0.22"/>
    <circle cx="770" cy="275" r="1.2" opacity="0.24"/>
    <circle cx="555" cy="295" r="1.2" opacity="0.2"/>
    <circle cx="685" cy="295" r="1.2" opacity="0.22"/>
    <circle cx="600" cy="310" r="1.1" opacity="0.2"/>
    <circle cx="740" cy="295" r="1.1" opacity="0.2"/>
    <circle cx="540" cy="320" r="1.1" opacity="0.18"/>
    <circle cx="665" cy="315" r="1.1" opacity="0.2"/>
    <circle cx="810" cy="270" r="1.1" opacity="0.18"/>
    <circle cx="580" cy="335" r="1.0" opacity="0.16"/>
    <circle cx="720" cy="310" r="1.0" opacity="0.18"/>
    <circle cx="630" cy="340" r="1.0" opacity="0.16"/>
    <circle cx="760" cy="325" r="1.0" opacity="0.16"/>
  </g>
</svg>
