<svg xmlns="http://www.w3.org/2000/svg" width="900" height="700" viewBox="0 0 900 700">
  <g fill="none" stroke="#8a8078" stroke-width="0.7" opacity="0.5">
    <!-- Waddington-style landscape: valleys branching downward like pen etching -->
    <!-- Ridge lines -->
    <path d="M650,30 Q670,80 660,130 Q650,180 620,230 Q590,280 560,330 Q530,380 510,430" />
    <path d="M650,30 Q680,80 710,130 Q740,180 760,230 Q780,280 790,330 Q800,380 805,430" />
    <path d="M660,130 Q665,160 670,190 Q675,220 690,250 Q705,280 720,310 Q735,340 745,370" />
    <path d="M660,130 Q640,160 625,190 Q610,220 600,250 Q590,280 585,310 Q580,340 575,370" />
    <!-- Sub-valleys -->
    <path d="M620,230 Q605,260 595,290 Q585,320 570,350" />
    <path d="M620,230 Q630,260 640,290 Q650,320 655,350" />
    <path d="M760,230 Q750,260 745,290 Q740,320 730,350" />
    <path d="M760,230 Q775,260 785,290 Q790,320 800,350" />
    <!-- Cross-contour hatching lines -->
    <path d="M590,80 Q620,85 650,80 Q680,75 710,80" />
    <path d="M570,130 Q610,140 650,135 Q690,130 730,135" />
    <path d="M550,180 Q590,195 640,190 Q690,185 750,195" />
    <path d="M530,230 Q570,250 620,245 Q670,240 720,250 Q770,260 800,255" />
    <path d="M520,280 Q555,300 590,295 Q625,290 660,300 Q695,310 730,305 Q765,300 800,310" />
    <path d="M510,330 Q540,350 570,348 Q600,346 630,355 Q660,364 690,360 Q720,356 750,365 Q780,374 810,370" />
    <path d="M505,380 Q530,400 560,398 Q590,396 620,405 Q650,414 680,410 Q710,406 745,415 Q778,424 810,420" />
    <!-- Deeper hatching for valley floors -->
    <path d="M555,350 Q565,365 575,380 Q585,395 590,410" opacity="0.3"/>
    <path d="M645,350 Q650,365 655,380 Q660,395 660,410" opacity="0.3"/>
    <path d="M725,350 Q730,365 735,380 Q740,395 740,410" opacity="0.3"/>
    <path d="M795,350 Q798,365 800,380 Q802,395 805,410" opacity="0.3"/>
    <!-- Ball at the top -->
    <circle cx="650" cy="25" r="4" fill="#8a8078" stroke="none" opacity="0.6"/>
    <!-- Ghost balls in valleys -->
    <circle cx="565" cy="370" r="3" fill="none" stroke="#8a8078" stroke-dasharray="2,2" opacity="0.3"/>
    <circle cx="740" cy="370" r="3" fill="none" stroke="#8a8078" stroke-dasharray="2,2" opacity="0.3"/>
  </g>
</svg>
