<svg xmlns="http://www.w3.org/2000/svg" width="900" height="700" viewBox="0 0 900 700">
  <g stroke="#8a8078" stroke-width="0.5" opacity="0.4">
    <!-- Edges -->
    <line x1="680" y1="60" x2="740" y2="95"/>
    <line x1="740" y1="95" x2="710" y2="160"/>
    <line x1="710" y1="160" x2="650" y2="140"/>
    <line x1="650" y1="140" x2="680" y2="60"/>
    <line x1="650" y1="140" x2="590" y2="180"/>
    <line x1="590" y1="180" x2="620" y2="250"/>
    <line x1="710" y1="160" x2="780" y2="180"/>
    <line x1="780" y1="180" x2="820" y2="140"/>
    <line x1="780" y1="180" x2="760" y2="250"/>
    <line x1="760" y1="250" x2="710" y2="160"/>
    <line x1="620" y1="250" x2="680" y2="280"/>
    <line x1="680" y1="280" x2="760" y2="250"/>
    <line x1="680" y1="280" x2="650" y2="340"/>
    <line x1="650" y1="340" x2="590" y2="180"/>
    <line x1="820" y1="140" x2="860" y2="80"/>
    <line x1="740" y1="95" x2="820" y2="140"/>
    <line x1="760" y1="250" x2="830" y2="270"/>
    <line x1="830" y1="270" x2="850" y2="220"/>
    <line x1="850" y1="220" x2="820" y2="140"/>
    <line x1="620" y1="250" x2="560" y2="290"/>
    <line x1="560" y1="290" x2="530" y2="250"/>
    <line x1="530" y1="250" x2="590" y2="180"/>
    <line x1="560" y1="290" x2="580" y2="350"/>
    <line x1="650" y1="340" x2="580" y2="350"/>
    <line x1="650" y1="340" x2="720" y2="350"/>
    <line x1="720" y1="350" x2="760" y2="250"/>
    <line x1="830" y1="270" x2="870" y2="320"/>
    <line x1="720" y1="350" x2="780" y2="380"/>
    <line x1="780" y1="380" x2="830" y2="270"/>
    <!-- Stray connections fading out -->
    <line x1="530" y1="250" x2="490" y2="210" opacity="0.25"/>
    <line x1="580" y1="350" x2="540" y2="400" opacity="0.2"/>
    <line x1="870" y1="320" x2="880" y2="380" opacity="0.15"/>
    <line x1="860" y1="80" x2="880" y2="40" opacity="0.2"/>
    <line x1="680" y1="60" x2="630" y2="35" opacity="0.25"/>
    <line x1="780" y1="380" x2="750" y2="430" opacity="0.15"/>
    <line x1="540" y1="400" x2="560" y2="440" opacity="0.1"/>
  </g>
  <g fill="#8a8078">
    <!-- Nodes -->
    <circle cx="680" cy="60" r="2.5" opacity="0.55"/>
    <circle cx="740" cy="95" r="2" opacity="0.5"/>
    <circle cx="710" cy="160" r="3" opacity="0.6"/>
    <circle cx="650" cy="140" r="2" opacity="0.5"/>
    <circle cx="590" cy="180" r="2.5" opacity="0.5"/>
    <circle cx="620" cy="250" r="2" opacity="0.45"/>
    <circle cx="780" cy="180" r="2" opacity="0.45"/>
    <circle cx="820" cy="140" r="2.5" opacity="0.5"/>
    <circle cx="760" cy="250" r="2.5" opacity="0.5"/>
    <circle cx="680" cy="280" r="2" opacity="0.4"/>
    <circle cx="650" cy="340" r="2" opacity="0.35"/>
    <circle cx="860" cy="80" r="1.8" opacity="0.4"/>
    <circle cx="830" cy="270" r="2" opacity="0.4"/>
    <circle cx="850" cy="220" r="1.8" opacity="0.4"/>
    <circle cx="530" cy="250" r="1.8" opacity="0.35"/>
    <circle cx="560" cy="290" r="2" opacity="0.35"/>
    <circle cx="580" cy="350" r="1.8" opacity="0.3"/>
    <circle cx="720" cy="350" r="2" opacity="0.3"/>
    <circle cx="870" cy="320" r="1.5" opacity="0.25"/>
    <circle cx="780" cy="380" r="1.5" opacity="0.25"/>
    <circle cx="490" cy="210" r="1.2" opacity="0.2"/>
    <circle cx="540" cy="400" r="1.2" opacity="0.15"/>
    <circle cx="630" cy="35" r="1.5" opacity="0.25"/>
    <circle cx="880" cy="40" r="1.2" opacity="0.2"/>
    <circle cx="750" cy="430" r="1" opacity="0.12"/>
  </g>
</svg>
