<svg xmlns="http://www.w3.org/2000/svg" width="900" height="700" viewBox="0 0 900 700">
  <g fill="none" stroke="#8a8078" stroke-width="0.6">
    <!-- Topographic contour lines, organic shapes, two peaks -->
    <path d="M720,120 Q740,115 755,125 Q765,140 755,155 Q740,165 720,160 Q705,150 710,135 Q715,125 720,120Z" opacity="0.5"/>
    <path d="M705,105 Q735,95 765,110 Q785,130 775,160 Q760,180 730,185 Q700,180 688,160 Q680,140 690,120 Q695,110 705,105Z" opacity="0.42"/>
    <path d="M688,88 Q725,75 770,92 Q800,115 795,155 Q785,195 748,210 Q710,215 680,200 Q658,180 655,150 Q655,120 668,100 Q675,92 688,88Z" opacity="0.35"/>
    <path d="M670,70 Q720,55 780,75 Q820,100 818,150 Q810,210 765,235 Q720,248 675,230 Q640,205 632,165 Q628,125 648,95 Q658,78 670,70Z" opacity="0.28"/>
    <path d="M650,52 Q710,35 790,58 Q840,88 840,148 Q835,225 778,258 Q728,275 668,255 Q620,228 608,178 Q600,130 625,90 Q638,65 650,52Z" opacity="0.22"/>
    <path d="M630,35 Q700,15 800,42 Q860,78 862,148 Q855,240 792,280 Q735,300 660,278 Q600,248 585,190 Q575,135 602,82 Q618,52 630,35Z" opacity="0.16"/>
    <!-- Second smaller peak -->
    <path d="M560,240 Q575,235 585,245 Q590,258 580,265 Q568,268 558,260 Q552,250 556,242Z" opacity="0.45"/>
    <path d="M545,225 Q568,215 590,228 Q602,248 595,270 Q580,285 558,285 Q538,278 530,258 Q528,238 540,228Z" opacity="0.35"/>
    <path d="M528,210 Q560,195 600,212 Q618,238 612,272 Q598,300 568,305 Q538,302 518,280 Q508,255 515,230 Q520,215 528,210Z" opacity="0.25"/>
    <path d="M510,195 Q550,175 608,195 Q632,225 628,268 Q618,315 578,325 Q538,322 510,298 Q492,268 498,232 Q502,208 510,195Z" opacity="0.17"/>
    <!-- Sparse outer contour connecting both -->
    <path d="M490,180 Q530,150 590,140 Q640,135 690,15 Q820,0 875,50 Q880,148 870,255 Q850,310 790,340 Q720,360 640,345 Q560,340 500,310 Q460,280 465,230 Q470,198 490,180Z" opacity="0.1"/>
  </g>
</svg>
