<svg xmlns="http://www.w3.org/2000/svg" width="900" height="700" viewBox="0 0 900 700">
  <g stroke="#8a8078" stroke-width="0.7" fill="none" opacity="0.4">
    <!-- Horizontal traces -->
    <path d="M550,60 L680,60 L680,90 L750,90"/>
    <path d="M620,120 L700,120 L700,150 L820,150"/>
    <path d="M580,180 L640,180 L640,210 L730,210 L730,180 L790,180"/>
    <path d="M560,250 L610,250 L610,280 L680,280"/>
    <path d="M650,310 L750,310 L750,340 L830,340"/>
    <path d="M590,370 L670,370 L670,340"/>
    <path d="M700,90 L700,120"/>
    <path d="M820,150 L820,210 L790,210"/>
    <path d="M750,90 L750,60 L830,60 L830,100"/>
    <path d="M680,280 L680,310"/>
    <path d="M830,340 L830,290 L860,290"/>
    <path d="M860,290 L860,210 L820,210"/>
    <!-- Stray traces fading -->
    <path d="M550,60 L520,60 L520,90" opacity="0.25"/>
    <path d="M560,250 L530,250" opacity="0.2"/>
    <path d="M590,370 L560,370 L560,400" opacity="0.15"/>
    <path d="M830,100 L870,100" opacity="0.2"/>
  </g>
  <g fill="#8a8078">
    <!-- Terminal dots -->
    <circle cx="550" cy="60" r="2" opacity="0.45"/>
    <circle cx="750" cy="90" r="2" opacity="0.45"/>
    <circle cx="620" cy="120" r="2" opacity="0.4"/>
    <circle cx="820" cy="150" r="2" opacity="0.4"/>
    <circle cx="580" cy="180" r="2" opacity="0.4"/>
    <circle cx="790" cy="180" r="2" opacity="0.4"/>
    <circle cx="560" cy="250" r="2" opacity="0.35"/>
    <circle cx="680" cy="280" r="2" opacity="0.35"/>
    <circle cx="830" cy="340" r="2" opacity="0.35"/>
    <circle cx="590" cy="370" r="2" opacity="0.3"/>
    <circle cx="830" cy="60" r="1.8" opacity="0.35"/>
    <circle cx="830" cy="100" r="1.8" opacity="0.35"/>
    <circle cx="860" cy="290" r="1.8" opacity="0.3"/>
    <!-- Junction dots -->
    <circle cx="680" cy="60" r="1.5" opacity="0.35"/>
    <circle cx="680" cy="90" r="1.5" opacity="0.35"/>
    <circle cx="700" cy="90" r="1.5" opacity="0.35"/>
    <circle cx="700" cy="120" r="1.5" opacity="0.35"/>
    <circle cx="640" cy="180" r="1.5" opacity="0.3"/>
    <circle cx="730" cy="210" r="1.5" opacity="0.3"/>
    <circle cx="820" cy="210" r="1.5" opacity="0.3"/>
    <circle cx="610" cy="250" r="1.5" opacity="0.3"/>
    <circle cx="750" cy="310" r="1.5" opacity="0.3"/>
    <circle cx="670" cy="340" r="1.5" opacity="0.25"/>
  </g>
</svg>
