<svg xmlns="http://www.w3.org/2000/svg" width="900" height="700" viewBox="0 0 900 700">
  <!-- Point cloud forming a loose spiral / galaxy shape -->
  <g fill="#8a8078">
    <!-- Core cluster -->
    <circle cx="710" cy="180" r="2.2" opacity="0.55"/>
    <circle cx="720" cy="175" r="1.8" opacity="0.5"/>
    <circle cx="705" cy="188" r="2.5" opacity="0.5"/>
    <circle cx="718" cy="185" r="1.5" opacity="0.48"/>
    <circle cx="700" cy="178" r="2" opacity="0.52"/>
    <circle cx="725" cy="182" r="1.8" opacity="0.45"/>
    <circle cx="712" cy="172" r="1.6" opacity="0.48"/>
    <circle cx="708" cy="192" r="1.4" opacity="0.45"/>
    <!-- Spiral arm 1 (upper right) -->
    <circle cx="735" cy="165" r="2" opacity="0.45"/>
    <circle cx="755" cy="150" r="1.8" opacity="0.42"/>
    <circle cx="770" cy="138" r="2.2" opacity="0.4"/>
    <circle cx="790" cy="128" r="1.6" opacity="0.38"/>
    <circle cx="808" cy="122" r="1.8" opacity="0.35"/>
    <circle cx="825" cy="115" r="1.5" opacity="0.32"/>
    <circle cx="840" cy="105" r="1.8" opacity="0.28"/>
    <circle cx="850" cy="92" r="1.4" opacity="0.25"/>
    <circle cx="858" cy="78" r="1.5" opacity="0.22"/>
    <circle cx="862" cy="62" r="1.2" opacity="0.18"/>
    <circle cx="860" cy="48" r="1" opacity="0.15"/>
    <!-- Scatter around arm 1 -->
    <circle cx="748" cy="142" r="1" opacity="0.3"/>
    <circle cx="782" cy="118" r="1.2" opacity="0.28"/>
    <circle cx="815" cy="128" r="0.8" opacity="0.22"/>
    <circle cx="845" cy="88" r="0.8" opacity="0.18"/>
    <circle cx="765" cy="155" r="0.8" opacity="0.25"/>
    <!-- Spiral arm 2 (lower left) -->
    <circle cx="690" cy="195" r="2" opacity="0.45"/>
    <circle cx="670" cy="210" r="1.8" opacity="0.42"/>
    <circle cx="648" cy="222" r="2" opacity="0.4"/>
    <circle cx="628" cy="232" r="1.6" opacity="0.38"/>
    <circle cx="608" cy="240" r="1.8" opacity="0.35"/>
    <circle cx="588" cy="245" r="1.5" opacity="0.32"/>
    <circle cx="568" cy="248" r="1.8" opacity="0.28"/>
    <circle cx="548" cy="252" r="1.4" opacity="0.25"/>
    <circle cx="530" cy="258" r="1.2" opacity="0.22"/>
    <circle cx="515" cy="268" r="1" opacity="0.18"/>
    <circle cx="502" cy="280" r="0.8" opacity="0.15"/>
    <!-- Scatter around arm 2 -->
    <circle cx="658" cy="228" r="1" opacity="0.28"/>
    <circle cx="618" cy="248" r="1.2" opacity="0.25"/>
    <circle cx="578" cy="238" r="0.8" opacity="0.2"/>
    <circle cx="538" cy="262" r="0.8" opacity="0.16"/>
    <!-- Spiral arm 3 (upper left, shorter) -->
    <circle cx="695" cy="168" r="1.6" opacity="0.42"/>
    <circle cx="680" cy="152" r="1.8" opacity="0.38"/>
    <circle cx="662" cy="140" r="1.5" opacity="0.35"/>
    <circle cx="642" cy="130" r="1.6" opacity="0.3"/>
    <circle cx="620" cy="125" r="1.4" opacity="0.25"/>
    <circle cx="600" cy="122" r="1.2" opacity="0.2"/>
    <circle cx="582" cy="125" r="1" opacity="0.16"/>
    <!-- Spiral arm 4 (lower right, shorter) -->
    <circle cx="730" cy="195" r="1.6" opacity="0.42"/>
    <circle cx="748" cy="208" r="1.8" opacity="0.38"/>
    <circle cx="762" cy="222" r="1.5" opacity="0.35"/>
    <circle cx="775" cy="238" r="1.4" opacity="0.3"/>
    <circle cx="788" cy="255" r="1.2" opacity="0.25"/>
    <circle cx="798" cy="272" r="1" opacity="0.2"/>
    <circle cx="805" cy="290" r="0.8" opacity="0.16"/>
    <!-- Outlier scatter -->
    <circle cx="870" cy="45" r="0.8" opacity="0.1"/>
    <circle cx="490" cy="295" r="0.8" opacity="0.1"/>
    <circle cx="565" cy="118" r="0.8" opacity="0.12"/>
    <circle cx="815" cy="305" r="0.8" opacity="0.1"/>
    <circle cx="875" cy="135" r="0.8" opacity="0.1"/>
    <circle cx="640" cy="275" r="0.8" opacity="0.1"/>
  </g>
</svg>
