<svg xmlns="http://www.w3.org/2000/svg" width="900" height="700" viewBox="0 0 900 700">
  <!-- Waddington landscape with dense pen-etching cross hatching -->
  <g fill="none" stroke="#8a8078" stroke-linecap="round">
    <!-- Valley outlines -->
    <path d="M700,20 Q700,60 690,100 Q680,140 660,180 Q640,220 620,260 Q600,300 585,340 Q575,380 570,420" stroke-width="0.8" opacity="0.45"/>
    <path d="M700,20 Q710,60 725,100 Q740,140 755,180 Q770,220 785,260 Q800,300 810,340 Q818,380 822,420" stroke-width="0.8" opacity="0.45"/>
    <!-- Central ridge -->
    <path d="M690,100 Q700,110 710,100" stroke-width="0.6" opacity="0.4"/>
    <path d="M670,180 Q695,195 720,180" stroke-width="0.6" opacity="0.38"/>
    <path d="M640,260 Q680,280 720,270 Q760,260 785,260" stroke-width="0.6" opacity="0.35"/>
    <!-- Sub-ridges -->
    <path d="M660,180 Q650,200 640,220 Q632,240 625,260" stroke-width="0.6" opacity="0.35"/>
    <path d="M755,180 Q765,200 775,220 Q780,240 785,260" stroke-width="0.6" opacity="0.35"/>
    <!-- Dense cross-hatching for valleys (pen etching style) -->
    <!-- Left valley hatching -->
    <line x1="645" y1="195" x2="655" y2="210" stroke-width="0.3" opacity="0.25"/>
    <line x1="640" y1="205" x2="650" y2="220" stroke-width="0.3" opacity="0.25"/>
    <line x1="635" y1="215" x2="645" y2="230" stroke-width="0.3" opacity="0.25"/>
    <line x1="630" y1="225" x2="640" y2="240" stroke-width="0.3" opacity="0.25"/>
    <line x1="625" y1="235" x2="635" y2="250" stroke-width="0.3" opacity="0.22"/>
    <line x1="620" y1="245" x2="630" y2="260" stroke-width="0.3" opacity="0.22"/>
    <line x1="615" y1="255" x2="625" y2="270" stroke-width="0.3" opacity="0.2"/>
    <line x1="610" y1="265" x2="620" y2="280" stroke-width="0.3" opacity="0.2"/>
    <line x1="605" y1="278" x2="615" y2="293" stroke-width="0.3" opacity="0.18"/>
    <line x1="600" y1="290" x2="610" y2="305" stroke-width="0.3" opacity="0.18"/>
    <line x1="595" y1="305" x2="605" y2="320" stroke-width="0.3" opacity="0.15"/>
    <line x1="590" y1="318" x2="600" y2="333" stroke-width="0.3" opacity="0.15"/>
    <!-- Right valley hatching -->
    <line x1="760" y1="195" x2="750" y2="210" stroke-width="0.3" opacity="0.25"/>
    <line x1="765" y1="205" x2="755" y2="220" stroke-width="0.3" opacity="0.25"/>
    <line x1="770" y1="215" x2="760" y2="230" stroke-width="0.3" opacity="0.25"/>
    <line x1="775" y1="225" x2="765" y2="240" stroke-width="0.3" opacity="0.25"/>
    <line x1="780" y1="235" x2="770" y2="250" stroke-width="0.3" opacity="0.22"/>
    <line x1="785" y1="248" x2="775" y2="263" stroke-width="0.3" opacity="0.22"/>
    <line x1="790" y1="260" x2="780" y2="275" stroke-width="0.3" opacity="0.2"/>
    <line x1="795" y1="275" x2="785" y2="290" stroke-width="0.3" opacity="0.2"/>
    <line x1="800" y1="288" x2="790" y2="303" stroke-width="0.3" opacity="0.18"/>
    <line x1="805" y1="300" x2="795" y2="315" stroke-width="0.3" opacity="0.18"/>
    <line x1="808" y1="315" x2="798" y2="330" stroke-width="0.3" opacity="0.15"/>
    <line x1="812" y1="328" x2="802" y2="343" stroke-width="0.3" opacity="0.15"/>
    <!-- Central ridge hatching (lighter) -->
    <line x1="680" y1="190" x2="690" y2="200" stroke-width="0.25" opacity="0.18"/>
    <line x1="695" y1="185" x2="705" y2="195" stroke-width="0.25" opacity="0.18"/>
    <line x1="710" y1="188" x2="720" y2="198" stroke-width="0.25" opacity="0.18"/>
    <line x1="725" y1="185" x2="735" y2="195" stroke-width="0.25" opacity="0.18"/>
    <!-- Horizontal contour lines -->
    <path d="M655,120 Q678,128 700,125 Q722,122 740,128" stroke-width="0.4" opacity="0.3"/>
    <path d="M640,160 Q668,170 695,168 Q722,165 750,172" stroke-width="0.4" opacity="0.28"/>
    <path d="M625,200 Q655,215 685,212 Q715,208 745,218 Q770,225 790,220" stroke-width="0.4" opacity="0.25"/>
    <path d="M610,240 Q640,258 670,255 Q700,250 730,260 Q760,268 795,262" stroke-width="0.4" opacity="0.22"/>
    <path d="M600,280 Q625,298 655,296 Q685,292 715,302 Q745,312 775,308 Q800,302 815,298" stroke-width="0.4" opacity="0.18"/>
    <path d="M590,320 Q612,338 640,336 Q668,332 698,342 Q728,352 758,348 Q788,342 815,338" stroke-width="0.4" opacity="0.15"/>
    <!-- Ball -->
    <circle cx="700" cy="16" r="4" fill="#8a8078" stroke="none" opacity="0.5"/>
  </g>
</svg>
